<svg width="20" height="26" viewBox="0 0 20 26" fill="none" xmlns="http://www.w3.org/2000/svg">
<path d="M18.75 6.88058H15V5.63058C15 4.3045 14.4732 3.03273 13.5355 2.09505C12.5979 1.15737 11.3261 0.630585 10 0.630585C8.67392 0.630585 7.40215 1.15737 6.46447 2.09505C5.52678 3.03273 5 4.3045 5 5.63058V6.88058H1.25C0.918479 6.88058 0.600537 7.01228 0.366117 7.2467C0.131696 7.48112 0 7.79906 0 8.13058V21.8806C0 22.8751 0.395088 23.829 1.09835 24.5322C1.80161 25.2355 2.75544 25.6306 3.75 25.6306H16.25C17.2446 25.6306 18.1984 25.2355 18.9017 24.5322C19.6049 23.829 20 22.8751 20 21.8806V8.13058C20 7.79906 19.8683 7.48112 19.6339 7.2467C19.3995 7.01228 19.0815 6.88058 18.75 6.88058ZM7.5 5.63058C7.5 4.96754 7.76339 4.33166 8.23223 3.86282C8.70107 3.39398 9.33696 3.13058 10 3.13058C10.663 3.13058 11.2989 3.39398 11.7678 3.86282C12.2366 4.33166 12.5 4.96754 12.5 5.63058V6.88058H7.5V5.63058ZM17.5 21.8806C17.5 22.2121 17.3683 22.53 17.1339 22.7645C16.8995 22.9989 16.5815 23.1306 16.25 23.1306H3.75C3.41848 23.1306 3.10054 22.9989 2.86612 22.7645C2.6317 22.53 2.5 22.2121 2.5 21.8806V9.38058H5V10.6306C5 10.9621 5.1317 11.28 5.36612 11.5145C5.60054 11.7489 5.91848 11.8806 6.25 11.8806C6.58152 11.8806 6.89946 11.7489 7.13388 11.5145C7.3683 11.28 7.5 10.9621 7.5 10.6306V9.38058H12.5V10.6306C12.5 10.9621 12.6317 11.28 12.8661 11.5145C13.1005 11.7489 13.4185 11.8806 13.75 11.8806C14.0815 11.8806 14.3995 11.7489 14.6339 11.5145C14.8683 11.28 15 10.9621 15 10.6306V9.38058H17.5V21.8806Z" fill="#FDFDFD"/>
</svg>
