<svg width="20" height="21" viewBox="0 0 20 21" fill="none" xmlns="http://www.w3.org/2000/svg">
<path fill-rule="evenodd" clip-rule="evenodd" d="M0 1.33058C0 0.667843 0.583976 0.130585 1.30435 0.130585H18.6957C19.416 0.130585 20 0.667843 20 1.33058C20 1.99333 19.416 2.53058 18.6957 2.53058H1.30435C0.583976 2.53058 0 1.99333 0 1.33058Z" fill="#FDFDFD"/>
<path fill-rule="evenodd" clip-rule="evenodd" d="M0 10.1306C0 9.46784 0.583976 8.93058 1.30435 8.93058H18.6957C19.416 8.93058 20 9.46784 20 10.1306C20 10.7933 19.416 11.3306 18.6957 11.3306H1.30435C0.583976 11.3306 0 10.7933 0 10.1306Z" fill="#FDFDFD"/>
<path fill-rule="evenodd" clip-rule="evenodd" d="M0 18.9306C0 18.2678 0.583976 17.7306 1.30435 17.7306H18.6957C19.416 17.7306 20 18.2678 20 18.9306C20 19.5933 19.416 20.1306 18.6957 20.1306H1.30435C0.583976 20.1306 0 19.5933 0 18.9306Z" fill="#FDFDFD"/>
</svg>
