<svg width="49" height="48" viewBox="0 0 49 48" fill="none" xmlns="http://www.w3.org/2000/svg">
<path d="M14.42 0H34.58C42.26 0 48.5 6.24 48.5 13.92V34.08C48.5 37.7718 47.0334 41.3124 44.4229 43.9229C41.8124 46.5334 38.2718 48 34.58 48H14.42C6.74 48 0.5 41.76 0.5 34.08V13.92C0.5 10.2282 1.96657 6.68758 4.57707 4.07707C7.18758 1.46657 10.7282 0 14.42 0ZM13.94 4.8C11.6485 4.8 9.45091 5.71028 7.8306 7.3306C6.21028 8.95091 5.3 11.1485 5.3 13.44V34.56C5.3 39.336 9.164 43.2 13.94 43.2H35.06C37.3515 43.2 39.5491 42.2897 41.1694 40.6694C42.7897 39.0491 43.7 36.8515 43.7 34.56V13.44C43.7 8.664 39.836 4.8 35.06 4.8H13.94ZM37.1 8.4C37.8957 8.4 38.6587 8.71607 39.2213 9.27868C39.7839 9.84129 40.1 10.6044 40.1 11.4C40.1 12.1957 39.7839 12.9587 39.2213 13.5213C38.6587 14.0839 37.8957 14.4 37.1 14.4C36.3044 14.4 35.5413 14.0839 34.9787 13.5213C34.4161 12.9587 34.1 12.1957 34.1 11.4C34.1 10.6044 34.4161 9.84129 34.9787 9.27868C35.5413 8.71607 36.3044 8.4 37.1 8.4ZM24.5 12C27.6826 12 30.7348 13.2643 32.9853 15.5147C35.2357 17.7652 36.5 20.8174 36.5 24C36.5 27.1826 35.2357 30.2348 32.9853 32.4853C30.7348 34.7357 27.6826 36 24.5 36C21.3174 36 18.2652 34.7357 16.0147 32.4853C13.7643 30.2348 12.5 27.1826 12.5 24C12.5 20.8174 13.7643 17.7652 16.0147 15.5147C18.2652 13.2643 21.3174 12 24.5 12ZM24.5 16.8C22.5904 16.8 20.7591 17.5586 19.4088 18.9088C18.0586 20.2591 17.3 22.0904 17.3 24C17.3 25.9096 18.0586 27.7409 19.4088 29.0912C20.7591 30.4414 22.5904 31.2 24.5 31.2C26.4096 31.2 28.2409 30.4414 29.5912 29.0912C30.9414 27.7409 31.7 25.9096 31.7 24C31.7 22.0904 30.9414 20.2591 29.5912 18.9088C28.2409 17.5586 26.4096 16.8 24.5 16.8Z" fill="black"/>
</svg>
