<svg width="24" height="24" viewBox="0 0 24 24" fill="none" xmlns="http://www.w3.org/2000/svg">
<path d="M2 19.6306C2 18.3045 2.52678 17.0327 3.46447 16.0951C4.40215 15.1574 5.67392 14.6306 7 14.6306H17C18.3261 14.6306 19.5979 15.1574 20.5355 16.0951C21.4732 17.0327 22 18.3045 22 19.6306C22 20.2936 21.7366 20.9295 21.2678 21.3984C20.7989 21.8672 20.163 22.1306 19.5 22.1306H4.5C3.83696 22.1306 3.20107 21.8672 2.73223 21.3984C2.26339 20.9295 2 20.2936 2 19.6306Z" stroke="#FDFDFD" stroke-width="2.5" stroke-linejoin="round"/>
<path d="M12 9.63058C14.0711 9.63058 15.75 7.95165 15.75 5.88058C15.75 3.80952 14.0711 2.13058 12 2.13058C9.92893 2.13058 8.25 3.80952 8.25 5.88058C8.25 7.95165 9.92893 9.63058 12 9.63058Z" stroke="#FDFDFD" stroke-width="2.5"/>
</svg>
